<svg width="169" height="51" viewBox="0 0 169 51" fill="none" xmlns="http://www.w3.org/2000/svg">
<path d="M0.8125 45V10.625H11.0859V13.9844H4.85547V25.7422H10.7539V29.1016H4.85547V41.6406H11.1641V45H0.8125ZM21.7305 45.3516C20.3112 45.3516 19.1654 45.1107 18.293 44.6289C17.4336 44.1471 16.776 43.457 16.3203 42.5586C15.8776 41.6471 15.5781 40.5664 15.4219 39.3164C15.2656 38.0534 15.1875 36.6536 15.1875 35.1172V25.3125C15.1875 23.3594 15.3503 21.6341 15.6758 20.1367C16.0013 18.6393 16.6393 17.4674 17.5898 16.6211C18.5404 15.7747 19.9531 15.3516 21.8281 15.3516C23.1302 15.3516 24.1784 15.5664 24.9727 15.9961C25.7799 16.4258 26.3919 17.0443 26.8086 17.8516C27.2383 18.6589 27.5247 19.6224 27.668 20.7422C27.8242 21.862 27.9023 23.1055 27.9023 24.4727V26.5039H23.957V23.9258C23.957 22.806 23.918 21.8685 23.8398 21.1133C23.7747 20.3451 23.5924 19.7656 23.293 19.375C22.9935 18.9844 22.4922 18.7891 21.7891 18.7891C21.0469 18.7891 20.4935 19.0039 20.1289 19.4336C19.7643 19.8503 19.5169 20.4557 19.3867 21.25C19.2695 22.0312 19.2109 22.9622 19.2109 24.043V36.5039C19.2109 37.7148 19.263 38.724 19.3672 39.5312C19.4714 40.3255 19.6992 40.9245 20.0508 41.3281C20.4023 41.7188 20.9427 41.9141 21.6719 41.9141C22.375 41.9141 22.8828 41.7057 23.1953 41.2891C23.5208 40.8594 23.7292 40.2474 23.8203 39.4531C23.9115 38.6458 23.957 37.6888 23.957 36.582V33.75H27.9023V35.6445C27.9023 37.0898 27.8307 38.4049 27.6875 39.5898C27.5443 40.7747 27.2578 41.7969 26.8281 42.6562C26.4115 43.5156 25.793 44.1797 24.9727 44.6484C24.1523 45.1172 23.0716 45.3516 21.7305 45.3516ZM38.8789 45.3516C37.4987 45.3516 36.3789 45.1172 35.5195 44.6484C34.6602 44.1667 33.9961 43.4896 33.5273 42.6172C33.0716 41.7318 32.7591 40.6771 32.5898 39.4531C32.4206 38.2161 32.3359 36.8359 32.3359 35.3125V24.9414C32.3359 23.1055 32.5117 21.4648 32.8633 20.0195C33.2148 18.5742 33.8594 17.4349 34.7969 16.6016C35.7474 15.7682 37.1081 15.3516 38.8789 15.3516C40.207 15.3516 41.2943 15.5924 42.1406 16.0742C42.987 16.543 43.6445 17.2135 44.1133 18.0859C44.582 18.9453 44.901 19.9609 45.0703 21.1328C45.2526 22.2917 45.3438 23.5612 45.3438 24.9414V35.3125C45.3438 36.8099 45.2656 38.1706 45.1094 39.3945C44.9531 40.6185 44.6471 41.6797 44.1914 42.5781C43.7487 43.4635 43.0977 44.1471 42.2383 44.6289C41.3919 45.1107 40.2721 45.3516 38.8789 45.3516ZM38.8789 42.0117C39.582 42.0117 40.1029 41.7773 40.4414 41.3086C40.793 40.8398 41.0273 40.1888 41.1445 39.3555C41.2617 38.5091 41.3203 37.5326 41.3203 36.4258V24.1406C41.3203 23.0469 41.2617 22.0964 41.1445 21.2891C41.0273 20.4688 40.793 19.8307 40.4414 19.375C40.0898 18.9193 39.569 18.6914 38.8789 18.6914C38.1497 18.6914 37.6029 18.9193 37.2383 19.375C36.8737 19.8307 36.6328 20.4688 36.5156 21.2891C36.4115 22.0964 36.3594 23.0469 36.3594 24.1406V36.4258C36.3594 37.5326 36.4115 38.5091 36.5156 39.3555C36.6328 40.1888 36.8737 40.8398 37.2383 41.3086C37.6029 41.7773 38.1497 42.0117 38.8789 42.0117Z" fill="white"/>
<path d="M52.0312 45V0.3125H55.8145V45H52.0312ZM62.8984 45V15.7031H66.9023V18.75C67.1628 17.8255 67.6836 17.0247 68.4648 16.3477C69.2591 15.6706 70.2617 15.332 71.4727 15.332C72.4362 15.332 73.276 15.5664 73.9922 16.0352C74.7083 16.5039 75.2487 17.2591 75.6133 18.3008C76.0951 17.4154 76.7591 16.6992 77.6055 16.1523C78.4518 15.6055 79.4414 15.332 80.5742 15.332C82.1237 15.332 83.3021 15.8854 84.1094 16.9922C84.9167 18.0859 85.3203 19.7135 85.3203 21.875V45H81.3164V21.7578C81.3164 20.651 81.1016 19.8828 80.6719 19.4531C80.2422 19.0104 79.6758 18.7891 78.9727 18.7891C77.9701 18.7891 77.2409 19.0169 76.7852 19.4727C76.3424 19.9154 76.1211 20.7161 76.1211 21.875V45H72.0977V21.7383C72.0977 20.6966 71.8958 19.9479 71.4922 19.4922C71.0885 19.0234 70.5221 18.7891 69.793 18.7891C68.8424 18.7891 68.1198 19.0951 67.625 19.707C67.1432 20.319 66.9023 21.1458 66.9023 22.1875V45H62.8984ZM90.9062 50.3516V15.7031H94.9102V18.1445C95.3008 17.181 95.8737 16.4909 96.6289 16.0742C97.3971 15.6576 98.1784 15.4492 98.9727 15.4492C100.379 15.4492 101.44 15.8659 102.156 16.6992C102.872 17.5195 103.348 18.6393 103.582 20.0586C103.829 21.4779 103.953 23.0859 103.953 24.8828V35.4883C103.953 37.3372 103.81 39.0104 103.523 40.5078C103.25 41.9922 102.71 43.1706 101.902 44.043C101.108 44.9154 99.9167 45.3516 98.3281 45.3516C97.5729 45.3516 96.8893 45.1237 96.2773 44.668C95.6784 44.1992 95.2227 43.6589 94.9102 43.0469V50.3516H90.9062ZM97.5469 41.9922C98.5104 41.9792 99.1484 41.4974 99.4609 40.5469C99.7734 39.5833 99.9297 38.0794 99.9297 36.0352V24.1797C99.9297 23.099 99.8841 22.1484 99.793 21.3281C99.7018 20.5078 99.4935 19.8698 99.168 19.4141C98.8424 18.9453 98.3281 18.7109 97.625 18.7109C97.0651 18.7109 96.5833 18.8411 96.1797 19.1016C95.776 19.362 95.4635 19.8828 95.2422 20.6641C95.0208 21.4453 94.9102 22.6172 94.9102 24.1797V36.1914C94.9102 38.1315 95.0729 39.5833 95.3984 40.5469C95.737 41.5104 96.4531 41.9922 97.5469 41.9922ZM113.621 45.2539C111.85 45.2539 110.574 44.5703 109.793 43.2031C109.012 41.8229 108.615 39.9154 108.602 37.4805V34.6289C108.602 33.3398 108.823 32.2721 109.266 31.4258C109.708 30.5664 110.333 29.8503 111.141 29.2773C111.948 28.7044 112.898 28.1901 113.992 27.7344C115.086 27.2656 116.284 26.7708 117.586 26.25V23.9844C117.586 22.7344 117.547 21.7253 117.469 20.957C117.391 20.1758 117.189 19.6029 116.863 19.2383C116.551 18.8737 116.043 18.6914 115.34 18.6914C114.65 18.6914 114.129 18.8737 113.777 19.2383C113.439 19.6029 113.217 20.1758 113.113 20.957C113.009 21.7383 112.957 22.7539 112.957 24.0039V25.0195H108.973V24.1797C108.973 22.9297 109.051 21.7708 109.207 20.7031C109.363 19.6224 109.663 18.6849 110.105 17.8906C110.548 17.0964 111.193 16.4779 112.039 16.0352C112.898 15.5794 114.025 15.3516 115.418 15.3516C116.746 15.3516 117.814 15.5664 118.621 15.9961C119.441 16.4128 120.066 17.0312 120.496 17.8516C120.939 18.6719 121.238 19.6875 121.395 20.8984C121.551 22.0964 121.629 23.4831 121.629 25.0586V45H117.605V42.4609C117.488 42.8516 117.26 43.2682 116.922 43.7109C116.583 44.1406 116.141 44.5052 115.594 44.8047C115.047 45.1042 114.389 45.2539 113.621 45.2539ZM114.754 42.0117C115.457 42.0117 116.062 41.7904 116.57 41.3477C117.078 40.8919 117.417 40.4427 117.586 40V28.8477C116.583 29.2904 115.757 29.694 115.105 30.0586C114.467 30.4102 113.966 30.7812 113.602 31.1719C113.25 31.5625 113.003 32.0312 112.859 32.5781C112.716 33.125 112.645 33.8151 112.645 34.6484V37.3633C112.645 39.0169 112.788 40.2083 113.074 40.9375C113.361 41.6536 113.921 42.0117 114.754 42.0117ZM132.977 45.3516C131.557 45.3516 130.411 45.1107 129.539 44.6289C128.68 44.1471 128.022 43.457 127.566 42.5586C127.124 41.6471 126.824 40.5664 126.668 39.3164C126.512 38.0534 126.434 36.6536 126.434 35.1172V25.3125C126.434 23.3594 126.596 21.6341 126.922 20.1367C127.247 18.6393 127.885 17.4674 128.836 16.6211C129.786 15.7747 131.199 15.3516 133.074 15.3516C134.376 15.3516 135.424 15.5664 136.219 15.9961C137.026 16.4258 137.638 17.0443 138.055 17.8516C138.484 18.6589 138.771 19.6224 138.914 20.7422C139.07 21.862 139.148 23.1055 139.148 24.4727V26.5039H135.203V23.9258C135.203 22.806 135.164 21.8685 135.086 21.1133C135.021 20.3451 134.839 19.7656 134.539 19.375C134.24 18.9844 133.738 18.7891 133.035 18.7891C132.293 18.7891 131.74 19.0039 131.375 19.4336C131.01 19.8503 130.763 20.4557 130.633 21.25C130.516 22.0312 130.457 22.9622 130.457 24.043V36.5039C130.457 37.7148 130.509 38.724 130.613 39.5312C130.717 40.3255 130.945 40.9245 131.297 41.3281C131.648 41.7188 132.189 41.9141 132.918 41.9141C133.621 41.9141 134.129 41.7057 134.441 41.2891C134.767 40.8594 134.975 40.2474 135.066 39.4531C135.158 38.6458 135.203 37.6888 135.203 36.582V33.75H139.148V35.6445C139.148 37.0898 139.077 38.4049 138.934 39.5898C138.79 40.7747 138.504 41.7969 138.074 42.6562C137.658 43.5156 137.039 44.1797 136.219 44.6484C135.398 45.1172 134.318 45.3516 132.977 45.3516ZM149.129 45.1758C147.879 45.1758 146.935 45.026 146.297 44.7266C145.659 44.4271 145.229 43.9453 145.008 43.2812C144.786 42.6172 144.676 41.7383 144.676 40.6445V18.9062H142V15.9375H144.676V10.625H148.68V15.9375H151.844V18.9062H148.68V40.293C148.68 40.7878 148.745 41.1589 148.875 41.4062C149.005 41.6406 149.298 41.7969 149.754 41.875C150.21 41.9531 150.919 41.9922 151.883 41.9922V45.1758H149.129ZM161.766 45.3516C160.385 45.3516 159.266 45.1172 158.406 44.6484C157.547 44.1667 156.883 43.4896 156.414 42.6172C155.958 41.7318 155.646 40.6771 155.477 39.4531C155.307 38.2161 155.223 36.8359 155.223 35.3125V24.9414C155.223 23.1055 155.398 21.4648 155.75 20.0195C156.102 18.5742 156.746 17.4349 157.684 16.6016C158.634 15.7682 159.995 15.3516 161.766 15.3516C163.094 15.3516 164.181 15.5924 165.027 16.0742C165.874 16.543 166.531 17.2135 167 18.0859C167.469 18.9453 167.788 19.9609 167.957 21.1328C168.139 22.2917 168.23 23.5612 168.23 24.9414V35.3125C168.23 36.8099 168.152 38.1706 167.996 39.3945C167.84 40.6185 167.534 41.6797 167.078 42.5781C166.635 43.4635 165.984 44.1471 165.125 44.6289C164.279 45.1107 163.159 45.3516 161.766 45.3516ZM161.766 42.0117C162.469 42.0117 162.99 41.7773 163.328 41.3086C163.68 40.8398 163.914 40.1888 164.031 39.3555C164.148 38.5091 164.207 37.5326 164.207 36.4258V24.1406C164.207 23.0469 164.148 22.0964 164.031 21.2891C163.914 20.4688 163.68 19.8307 163.328 19.375C162.977 18.9193 162.456 18.6914 161.766 18.6914C161.036 18.6914 160.49 18.9193 160.125 19.375C159.76 19.8307 159.52 20.4688 159.402 21.2891C159.298 22.0964 159.246 23.0469 159.246 24.1406V36.4258C159.246 37.5326 159.298 38.5091 159.402 39.3555C159.52 40.1888 159.76 40.8398 160.125 41.3086C160.49 41.7773 161.036 42.0117 161.766 42.0117Z" fill="#8DAA66"/>
</svg>
